<svg aria-hidden="true" style="position: absolute; width: 0; height: 0; overflow: hidden;" version="1.1" xmlns="http://www.w3.org/2000/svg" xmlns:xlink="http://www.w3.org/1999/xlink">
<defs>
<symbol id="alarm" viewBox="0 0 32 32">
<title>alarm</title>
<path d="M30.74 9.503c-1.584-3.696-4.547-6.66-8.243-8.243 1-0.787 2.258-1.26 3.629-1.26 3.244 0 5.874 2.63 5.874 5.874 0 1.371-0.473 2.629-1.26 3.629zM30.5 16c0 3.852-1.512 7.343-3.963 9.94l2.029 2.028c0.268 0.269 0.434 0.639 0.434 1.049 0 0.819-0.664 1.483-1.483 1.483-0.41 0-0.781-0.166-1.049-0.435l-2.178-2.178c-2.351 1.642-5.205 2.613-8.29 2.613-3.079 0-5.928-0.966-8.276-2.603l-2.163 2.163c-0.272 0.272-0.647 0.44-1.061 0.44-0.828 0-1.5-0.672-1.5-1.501 0-0.413 0.168-0.789 0.439-1.060l2.012-2.012c-2.443-2.595-3.951-6.082-3.951-9.927 0-8.008 6.492-14.5 14.5-14.5s14.5 6.492 14.5 14.5zM16 4.5c-6.351 0-11.5 5.148-11.5 11.5 0 6.351 5.149 11.5 11.5 11.5s11.5-5.149 11.5-11.5c0-6.352-5.149-11.5-11.5-11.5zM22 17.5h-6c-0.828 0-1.5-0.672-1.5-1.5v-8c0-0.828 0.672-1.5 1.5-1.5s1.5 0.672 1.5 1.5v6.499h4.5c0.828 0 1.5 0.672 1.5 1.501s-0.672 1.5-1.5 1.5zM1.287 9.705c-0.804-1.020-1.287-2.305-1.287-3.705 0-3.314 2.686-6 6-6 1.4 0 2.685 0.483 3.706 1.287-3.775 1.617-6.802 4.644-8.419 8.418z"></path>
</symbol>
<symbol id="book" viewBox="0 0 32 32">
<title>book</title>
<path d="M31.065 25.889l-14.471 5.988c-0.182 0.079-0.383 0.123-0.594 0.123s-0.412-0.044-0.594-0.123l-14.471-5.988c-0.548-0.223-0.935-0.761-0.935-1.389v-23c0-0.829 0.672-1.5 1.5-1.5 0.203 0 0.397 0.041 0.573 0.114h0.001l0.002 0.001c0.004 0.001 0.009 0.004 0.013 0.005l13.911 5.756 13.911-5.756c0.004-0.001 0.009-0.004 0.013-0.005l0.003-0.001c0.176-0.073 0.37-0.114 0.573-0.114 0.828 0 1.5 0.671 1.5 1.5v23c0 0.628-0.387 1.166-0.935 1.389zM14.5 8.503l-11.5-4.759v19.753l11.5 4.759v-19.753zM29 3.744l-11.5 4.759v19.753l11.5-4.759v-19.753zM19.879 10.634l5.5-2.5c0.189-0.086 0.399-0.134 0.621-0.134 0.828 0 1.5 0.671 1.5 1.5 0 0.607-0.361 1.129-0.879 1.365v0l-5.5 2.5c-0.19 0.087-0.4 0.135-0.621 0.135-0.828 0-1.5-0.672-1.5-1.5 0-0.607 0.361-1.13 0.879-1.366zM19.879 16.134v0l5.5-2.5c0.189-0.086 0.399-0.134 0.621-0.134 0.828 0 1.5 0.671 1.5 1.499 0 0.608-0.361 1.13-0.879 1.366l-5.5 2.5c-0.19 0.086-0.4 0.135-0.621 0.135-0.828 0-1.5-0.672-1.5-1.5 0-0.607 0.361-1.13 0.879-1.366zM19.879 21.634v0l5.5-2.5c0.189-0.086 0.399-0.134 0.621-0.134 0.828 0 1.5 0.671 1.5 1.5 0 0.607-0.361 1.129-0.879 1.365v0l-5.5 2.5c-0.19 0.087-0.4 0.135-0.621 0.135-0.828 0-1.5-0.672-1.5-1.5 0-0.607 0.361-1.13 0.879-1.366zM6 8c0.221 0 0.431 0.048 0.621 0.134v0l5.5 2.5c0.518 0.236 0.879 0.759 0.879 1.366 0 0.828-0.672 1.5-1.5 1.5-0.222 0-0.432-0.048-0.621-0.135v0l-5.5-2.5c-0.518-0.236-0.879-0.758-0.879-1.365 0-0.829 0.672-1.5 1.5-1.5zM6 13.5c0.221 0 0.431 0.048 0.621 0.134v0l5.5 2.5c0.518 0.236 0.879 0.759 0.879 1.366 0 0.828-0.672 1.5-1.5 1.5-0.222 0-0.432-0.049-0.621-0.135v0l-5.5-2.5c-0.518-0.236-0.879-0.758-0.879-1.366 0-0.828 0.672-1.499 1.5-1.499zM6 19c0.221 0 0.431 0.048 0.621 0.134v0l5.5 2.5c0.518 0.236 0.879 0.759 0.879 1.366 0 0.828-0.672 1.5-1.5 1.5-0.222 0-0.432-0.048-0.621-0.135v0l-5.5-2.5c-0.518-0.236-0.879-0.758-0.879-1.365 0-0.829 0.672-1.5 1.5-1.5z"></path>
</symbol>
<symbol id="comp" viewBox="0 0 32 32">
<title>comp</title>
<path d="M30 23h-9.5v2.499l2 2.001v0.5h-13v-0.5l2-2.001v-2.499h-9.5c-0.828 0-1.5-0.672-1.5-1.501v-19.999c0-0.829 0.672-1.5 1.5-1.5h28c0.828 0 1.5 0.671 1.5 1.5v19.999c0 0.829-0.672 1.501-1.5 1.501zM29.5 2h-27v17h27v-17zM13 9c0.414 0 0.789 0.168 1.061 0.439v0l0.939 0.939 2.939-2.939c0.272-0.272 0.647-0.439 1.061-0.439 0.828 0 1.5 0.671 1.5 1.5 0 0.414-0.168 0.789-0.439 1.061v0l-4 4c-0.272 0.271-0.647 0.439-1.061 0.439s-0.789-0.168-1.061-0.439v0l-2-2.001c-0.271-0.271-0.439-0.646-0.439-1.060 0-0.829 0.672-1.5 1.5-1.5z"></path>
</symbol>
<symbol id="digital" viewBox="0 0 32 32">
<title>digital</title>
<path d="M30.5 32h-29c-0.829 0-1.5-0.672-1.5-1.5v-29c0-0.829 0.671-1.5 1.5-1.5h29c0.828 0 1.5 0.671 1.5 1.5v29c0 0.828-0.672 1.5-1.5 1.5zM29 3h-26v26h26v-26zM6.5 4.5h5.5c0.828 0 1.5 0.671 1.5 1.5s-0.672 1.5-1.5 1.5v0h-4.5v4.5c0 0.828-0.672 1.5-1.5 1.5s-1.5-0.672-1.5-1.5v0-7.5h2zM4.5 20v0c0-0.829 0.672-1.501 1.5-1.501s1.5 0.672 1.5 1.501v0 4.499l4.5 0.001c0.828 0 1.5 0.671 1.5 1.5 0 0.828-0.672 1.5-1.5 1.5v0h-7.5v-7.5zM20 4.5v0h7.5v7.5c0 0.828-0.672 1.5-1.5 1.5s-1.5-0.672-1.5-1.5v0-4.5h-4.5c-0.828 0-1.5-0.672-1.5-1.5s0.672-1.5 1.5-1.5zM20 24.5v-0.001h4.5v-4.499c0-0.829 0.672-1.501 1.5-1.501s1.5 0.672 1.5 1.501v0 7.5h-7.5c-0.828 0-1.5-0.672-1.5-1.5 0-0.829 0.672-1.5 1.5-1.5z"></path>
</symbol>
<symbol id="home" viewBox="0 0 32 32">
<title>home</title>
<path d="M32 16.5c0 0.828-0.672 1.499-1.5 1.499-0.395 0-0.752-0.155-1.020-0.405l-0.003 0.004-13.477-13.476-13.447 13.446c-0.271 0.267-0.643 0.431-1.053 0.431-0.828 0-1.5-0.671-1.5-1.499 0-0.425 0.177-0.808 0.461-1.081l14.458-14.459c0.273-0.283 0.656-0.46 1.081-0.46v0 0c0 0 0 0 0.001 0 0.026 0 0.052 0 0.079 0.002 0.004 0 0.008 0.001 0.012 0.001 0.023 0.001 0.045 0.003 0.068 0.005 0.001 0 0.002 0 0.004 0.001 0.367 0.040 0.694 0.212 0.933 0.468l0.001-0.001 5.902 5.902v-1.378c0-0.829 0.671-1.5 1.5-1.5 0.828 0 1.5 0.671 1.5 1.5v4.378l5.598 5.598-0.004 0.004c0.25 0.268 0.406 0.625 0.406 1.020zM29 19v10.5c0 0.828-0.672 1.5-1.5 1.5h-3v-12h-6v12h-14c-0.828 0-1.5-0.672-1.5-1.5v-10.5l13-13 13 13zM13.5 19h-6v6h6v-6z"></path>
</symbol>
<symbol id="linegraf" viewBox="0 0 32 32">
<title>linegraf</title>
<path d="M30.5 32h-29c-0.828 0-1.5-0.672-1.5-1.5v-29.001c0-0.827 0.672-1.499 1.5-1.499h29c0.828 0 1.5 0.672 1.5 1.499v29.001c0 0.828-0.672 1.5-1.5 1.5zM29 3h-26v26h26v-26zM5.215 16.239v-0.002l4-2.498c0.229-0.141 0.497-0.222 0.785-0.222 0.311 0 0.6 0.095 0.84 0.257l0.006-0.008 6.631 4.42 7.638-5.391c0.248-0.182 0.554-0.29 0.885-0.29 0.828 0 1.5 0.672 1.5 1.5 0 0.5-0.245 0.943-0.622 1.216h0.001l-8.501 6c-0.246 0.179-0.55 0.284-0.878 0.284-0.321 0-0.618-0.101-0.861-0.272l-6.657-4.438-3.135 1.96c-0.241 0.165-0.533 0.262-0.847 0.262-0.828 0-1.5-0.672-1.5-1.5 0-0.541 0.286-1.014 0.715-1.278z"></path>
</symbol>
</defs>
</svg>
