<svg id="root" viewBox="0 0 480 480" xmlns="http://www.w3.org/2000/svg"><path d="m240 0c-132.546875 0-240 107.453125-240 240s107.453125 240 240 240 240-107.453125 240-240c-.148438-132.484375-107.515625-239.851562-240-240zm214.078125 174.046875c-27.097656-6.351563-54.949219-8.886719-82.75-7.527344 1.96875-29.582031 12.273437-58 29.726563-81.96875 24.449218 25.261719 42.613281 55.917969 53.023437 89.496094zm-64.652344-100.75c-20.210937 27.386719-31.972656 60.082031-33.839843 94.0625-25.679688 1.96875-51.1875 5.777344-76.320313 11.394531-8.960937-57.726562-30.289063-112.832031-62.523437-161.546875 7.726562-.800781 15.488281-1.203125 23.257812-1.207031 55.179688-.035156 108.414062 20.375 149.425781 57.296875zm-168.242187 389.855469c-35.589844-2.960938-69.941406-14.445313-100.152344-33.488282 62.089844-81.152343 90.769531-152.863281 85.367188-213.503906 19.457031-6.472656 39.378906-12.367187 59.402343-17.390625 8.261719 71.773438-.488281 160.175781-44.617187 264.382813zm-17.246094-263.664063c-.5625-2.792969-1.074219-5.601562-1.785156-8.34375-16.0625-61.777343-67.824219-97.878906-111.488282-117.921875 30.5625-27.441406 68.101563-45.925781 108.488282-53.421875 33.570312 48.589844 55.609375 104.203125 64.441406 162.597657-18.625 4.523437-38.464844 10.136718-59.65625 17.089843zm-125.601562-114.257812c41.511718 18.015625 93.175781 51.523437 108.367187 109.9375.800781 3.113281 1.433594 6.304687 2.023437 9.496093-58.132812 20.667969-114.683593 45.550782-169.199218 74.449219-12.585938-70.316406 9.28125-142.40625 58.808594-193.882812zm-55.40625 210.097656c54.125-28.519531 110.203124-53.183594 167.804687-73.800781 3.457031 55.921875-24.34375 122.746094-82.949219 199.136718-41.933594-30.703124-71.925781-75-84.855468-125.335937zm217.070312 168.671875c-.625 0-1.238281-.039062-1.863281-.046875 43.765625-105.722656 52.160156-195.695313 43.40625-268.9375 24.460937-5.652344 49.296875-9.546875 74.3125-11.65625 3.046875 44 25.800781 95.410156 87.496093 150.402344-36.628906 79.316406-115.984374 130.140625-203.351562 130.238281zm209.921875-145.878906c-54.167969-49.601563-75.539063-95.472656-78.402344-135.695313 29.410157-1.648437 58.890625 1.585938 87.242188 9.574219 9.277343 42.019531 6.222656 85.828125-8.800781 126.152344zm0 0"/><path d="m50.96875 213.601562c4.417969 0 8-3.582031 8-8 .738281-29.722656 12.089844-58.199218 32-80.28125 3.121094-3.128906 3.117188-8.195312-.011719-11.316406-3.128906-3.121094-8.195312-3.117187-11.316406.011719-23.039063 25-36.089844 57.59375-36.671875 91.585937 0 4.417969 3.582031 8 8 8zm0 0"/><path d="m111.105469 385.488281c3.746093.046875 7.023437-2.515625 7.882812-6.164062.859375-3.648438-.925781-7.402344-4.300781-9.035157-20.128906-11.792968-34.222656-31.664062-38.695312-54.5625-.917969-4.273437-5.101563-7.019531-9.390626-6.164062-4.289062.859375-7.09375 5-6.296874 9.300781 5.386718 27.75 22.628906 51.761719 47.199218 65.738281 1.113282.570313 2.347656.875 3.601563.886719zm0 0"/><path d="m190.976562 412.855469-25.777343-8.589844c-4.195313-1.398437-8.734375.867187-10.132813 5.066406-1.398437 4.199219.871094 8.734375 5.070313 10.132813l25.773437 8.535156c4.199219 1.398438 8.734375-.871094 10.132813-5.066406 1.398437-4.199219-.871094-8.734375-5.066407-10.132813zm0 0"/></svg>